<svg id="production" xmlns="http://www.w3.org/2000/svg" viewBox="0 0 150 150"><defs><style>.cls-1{fill:#f68e1e;}.cls-2{fill:none;stroke:#f68e1e;stroke-miterlimit:10;stroke-width:2.75px;}</style></defs><title>careers-disciplines-icon-</title><path class="cls-1" d="M71,97.69c-8,4.49-8.25,6.15-18.39,12.18,20.34-15.36,5.67-55-20.49-46.41,18.23-5.06,1.75-1.29,21.09-6.66S85.89,89.35,71,97.69Z"/><path class="cls-1" d="M108.8,66.62c-4.05,3-20.7,14.44-28.61,20.41,7.91-6-3-33-15.14-30,12.11-3,26.77-8.64,33.1-10.31C109.31,43.79,115.34,61.84,108.8,66.62Z"/><path class="cls-1" d="M129,49.47c-0.63.46-9.74,5.82-14.58,9.48,3.34-2.52-1.28-13.93-6.39-12.66,5.11-1.27,14.91-3.36,17.59-4.07C130.35,41,131.8,47.45,129,49.47Z"/><path class="cls-2" d="M60.69,81.78c3.32,12.7-2.31,25.36-12.57,28.28s-21.28-5-24.6-17.71S25.83,67,36.09,64.07,57.37,69.08,60.69,81.78Z"/><path class="cls-1" d="M53.79,79.17S60,109.63,34.26,99.88C30.82,99.26,46,99.82,53.79,79.17Z"/></svg>