<svg id="busops" xmlns="http://www.w3.org/2000/svg" viewBox="0 0 150 150"><defs><style>.cls-1{fill:#f68e1e;}.cls-2,.cls-3{fill:none;stroke:#f68e1e;stroke-miterlimit:10;stroke-width:3px;}.cls-3{stroke-linecap:round;}</style></defs><title>careers-disciplines-icon-</title><path class="cls-1" d="M75.87,94.72a14.82,14.82,0,1,1-10.48,4.34,14.72,14.72,0,0,1,10.48-4.34m0-3a17.82,17.82,0,1,0,12.6,5.22,17.77,17.77,0,0,0-12.6-5.22h0Z"/><path class="cls-1" d="M83.79,98.24h0a3.5,3.5,0,0,1,2.56.82c1,1,1.08,3,.34,5.48a24.54,24.54,0,0,1-6.18,9.64c-4,4-9,6.67-12.56,6.67a3.5,3.5,0,0,1-2.56-.82c-1-1-1.08-3-.34-5.48a24.54,24.54,0,0,1,6.18-9.64c4-4,9-6.67,12.56-6.67m0-3c-4.25,0-9.87,2.74-14.68,7.54-7,7-9.58,15.63-5.84,19.36a6.4,6.4,0,0,0,4.68,1.7c4.25,0,9.87-2.74,14.68-7.54,7-7,9.58-15.63,5.84-19.36a6.4,6.4,0,0,0-4.68-1.7h0Z"/><line class="cls-2" x1="68.64" y1="95.86" x2="90.55" y2="117.78"/><line class="cls-2" x1="60.95" y1="103.05" x2="82.72" y2="124.82"/><path class="cls-3" d="M107.46,118a29.17,29.17,0,0,0-6.89-25.51"/><polygon class="cls-1" points="114.89 118.41 103.33 127.9 100.9 113.14 114.89 118.41"/><path class="cls-3" d="M42.25,106a29.17,29.17,0,0,0,6.89,25.51"/><polygon class="cls-1" points="34.82 105.56 46.39 96.08 48.82 110.84 34.82 105.56"/><path class="cls-1" d="M72.05,12.94c0.66,0.43,1.31.9,2,1.3,2.47,1.44,5,2.86,7.43,4.3,1,0.57,2,1.16,2.91,1.78a1.09,1.09,0,0,1,.45.7c0.16,1.35.28,2.72,0.4,4.08,0.08,0.95.1,1.9,0.19,2.84,0.15,1.57.32,3.14,0.48,4.61l6.15,1.84c1.51-3.92.82-8,.7-12.11l1.18,1.45c1.59,2,3.17,3.91,4.78,5.85a0.7,0.7,0,0,1,0,.91c-1,2-2,4-2.93,6a19.84,19.84,0,0,1,6.92,7.32c1.95,3.79,2.73,7.77,1.31,12A12.69,12.69,0,0,1,97.63,63a21.1,21.1,0,0,1-7.34,2.17,26.17,26.17,0,0,1-13.17-2c-1.45-.57-2.92-1.09-4.41-1.58-1.29-.42-2.07.12-2,1.38,0.15,1.63-.32,4.66-0.12,6.35,1.45-.2,2.68-0.34,3.9-0.54,1.82-.29,3.64-0.67,5.47-0.89a2.06,2.06,0,0,1,1.44.51c2.11,2,4.16,4,6.25,6a1,1,0,0,0,.75.17c0.86-.16,1.72-0.37,2.57-0.57l6.39-1.45,0.1,0.22,0.43,4L98,76.9l-11.73,7-2.73.62a3.12,3.12,0,0,1-1.12-.66c-0.67-1.08-1.22-2.22-1.81-3.33-1.27-2.41-2.56-4.81-3.81-7.23a0.73,0.73,0,0,0-1.05-.41l-6,2c-0.57,1.77-.42,2.15-1,3.92s-1.16,3.39-1.7,5.1a1.38,1.38,0,0,1-1.63.95c-3-.28-5.9-0.64-8.85-0.95a1.16,1.16,0,0,0-.81.26c-1.34,1.35-2.65,2.72-4,4.09-0.69.71-2.2,2.24-2.2,2.24l-4.34-2s0.27-1,.38-1.4c1-3.42,1.93-6.13,2.91-9.55,0.58-2,2-3.17,4.53-2.56,1.07,0.26,2.12.58,3.17,0.9,2.5,0.75,5,.8,7.65,1.61,0.23-1.39.46-2.61,0.6-3.84a1.69,1.69,0,0,0-.35-1.1c-1.33-1.79-2.83-3.49-4-5.36a33.35,33.35,0,0,1-2.38-4.92A13.44,13.44,0,0,1,57,59.55c-0.21-1.07-.29-2.17-0.43-3.29-0.89.41-3.14,0.75-3.93,1.18-0.27.15-2.1,6.54-1,7.09,0.33,0.17,4.19.6,4.21,0.94a31.88,31.88,0,0,1-.08,3.21c-0.05,1.11-.11,1.14-1.35,1.45-1.46.36-2.89,0.79-4.36,1.12a4.09,4.09,0,0,1-1.87.06c-1.44-.4-2.81-1-4.22-1.43a0.88,0.88,0,0,1-.73-1,24.78,24.78,0,0,1,1.31-5.75c1.07-3.42,1.35-4.75,2.39-8.18a1,1,0,0,1,.54-0.6q2.12-.62,4.27-1.14c1.69-.41,3.4-0.78,5-1.14l0.62-2.69c-1.67-.19-3.34-0.5-5-0.55-3.83-.12-7.67-0.12-11.5-0.14-2.26,0-4.53,0-6.79,0l0-.14,1-.43,6.06-2.4c2-.81,4.09-1.62,6.14-2.41A2.59,2.59,0,0,1,48.62,43c3.22,0.86,6.41,1.78,9.62,2.67a0.71,0.71,0,0,0,.58-0.13c0.83-1.38,1.62-2.77,2.51-4.32-0.54-.26-1.15-0.52-1.72-0.84-2.49-1.41-4.74-3.2-7.68-3.93-3.44-.85-6.87-1.75-10.31-2.63l-4.47-1.16a11.9,11.9,0,0,1,2.2-.46c1.23-.17,2.46-0.36,3.7-0.52,1.79-.22,3.59-0.4,5.38-0.63s3.59-.53,5.39-0.73a1.83,1.83,0,0,1,1,.34c0.61,0.37,1.17.81,1.76,1.22l8.16,5.78,3.7-2.76c-1.06-1.64-2.09-3.25-3.13-4.84a14.07,14.07,0,0,0-1.93-2.76A45.16,45.16,0,0,0,59,23.94c-1.67-1.21-3.41-2.34-5.11-3.51-0.52-.36-1-0.74-1.52-1.11a32.61,32.61,0,0,1,4,.36c3.81,0.49,7.62,1,11.42,1.48a1,1,0,0,1,.6.53c0.44,1,.81,2,1.23,3,0.68,1.61,1.38,3.22,2.07,4.83l1.4,3.25L80.26,32c-0.57-2.49-1.14-5.12-1.77-7.73a6.76,6.76,0,0,0-.78-2c-2-3.1-4-6.16-6-9.24ZM82,49.88a4.9,4.9,0,0,0,6.09,3.37c2.86-.65,4.55-3,4-5.67a4.8,4.8,0,0,0-6-3.34A4.9,4.9,0,0,0,82,49.88Z"/></svg>