<svg id="engineering" xmlns="http://www.w3.org/2000/svg" viewBox="0 0 150 150"><defs><style>.cls-1{fill:#f68e1e;}.cls-2{fill:none;stroke:#f68e1e;stroke-linecap:round;stroke-linejoin:round;stroke-width:3px;}</style></defs><title>careers-disciplines-icon-</title><polygon class="cls-1" points="105.81 85.94 112.23 92.37 136.34 68.26 130.98 62.9 118.84 63.42 106.76 75.5 105.81 85.94"/><polygon class="cls-1" points="87.64 19.56 81.22 13.13 57.11 37.24 62.47 42.6 74.61 42.07 86.69 29.99 87.64 19.56"/><rect class="cls-1" x="53.37" y="73.03" width="28.67" height="17.48" transform="translate(-37.99 71.82) rotate(-45)"/><rect class="cls-1" x="29.44" y="97.16" width="34.31" height="11.42" transform="translate(-59.09 63.08) rotate(-45)"/><rect class="cls-1" x="14.68" y="121.85" width="22.31" height="3.59" transform="translate(95 17.95) rotate(45)"/><line class="cls-2" x1="23.67" y1="111.45" x2="37.03" y2="124.8"/><line class="cls-2" x1="75.33" y1="61.79" x2="87.69" y2="74.14"/><path class="cls-1" d="M94.61,29.59l-9,.2L72.95,42.46,72.13,51,98.44,77.34l8.58-.82,12.67-12.67,0.2-9ZM80.93,41l1.64-1.76,14.08,4.62-2,2.17L84.17,42.38l0,0,4.38,10.19-2,2.17Zm6.3,16,18.24-10.73,2.06,1.93L89.3,59Zm22.42,11-14-4.68,2-2.17L108.28,65l0,0-4.55-10.35,2-2.17,5.61,13.68Z"/></svg>