<svg id="esports" xmlns="http://www.w3.org/2000/svg" viewBox="0 0 150 150"><defs><style>.cls-1,.cls-2{fill:none;stroke:#f68e1e;stroke-miterlimit:10;}.cls-1{stroke-width:4px;}.cls-2{stroke-width:3px;}.cls-3{fill:#f68e1e;}</style></defs><title>careers-disciplines-icon-</title><path class="cls-1" d="M53.14,33.76H40.53s-0.81,25.07,18.3,31.45"/><path class="cls-1" d="M102,34.71h12.61s0.81,25.07-18.3,31.45"/><polygon class="cls-2" points="92.38 119.19 64.81 119.19 66.7 108.92 91.44 108.92 92.38 119.19"/><polygon class="cls-2" points="103.02 129.78 55.46 129.78 58.3 119.19 100.18 119.19 103.02 129.78"/><path class="cls-3" d="M78,23.54H50.58s0.1,60.11,27.06,60.6H78c27-.48,27.06-60.6,27.06-60.6H78ZM73.5,77.25c-3-.54,17.75-20.62,24.5-38.55C98,38.7,95.5,80.25,73.5,77.25Z"/><path class="cls-3" d="M69.29,81.39c11.81,6,5.36,17.87-1.63,26.46,7.77,0.29,23.15,0,23.15,0S75.44,91.4,85.74,81.39C77.21,81.39,84.42,81.35,69.29,81.39Z"/></svg>