<svg id="marketing" xmlns="http://www.w3.org/2000/svg" viewBox="0 0 150 150"><defs><style>.cls-1,.cls-2{fill:none;stroke:#f68e1e;stroke-miterlimit:10;stroke-width:3px;}.cls-2{stroke-linecap:round;}.cls-3{fill:#f68e1e;}</style></defs><title>careers-disciplines-icon-</title><path class="cls-1" d="M112.27,67.11a40.65,40.65,0,0,1,3.27,9.63"/><path class="cls-1" d="M114.91,95.88A40.94,40.94,0,1,1,91.7,47.41"/><path class="cls-1" d="M100.92,71.28A28.76,28.76,0,0,1,104,80.42"/><path class="cls-1" d="M103.2,93.18A29,29,0,1,1,90,60"/><path class="cls-1" d="M89.18,89.94a14.63,14.63,0,1,1,.8-6.25"/><polygon class="cls-1" points="12.66 33.44 25.84 43.16 37.53 46.1 36.27 34.36 26.13 20.91 26.36 34.94 12.66 33.44"/><line class="cls-2" x1="38.12" y1="45.71" x2="75.69" y2="83.29"/><path class="cls-3" d="M92.07,43.76c10.19-8.74,21.46-15.38,32.75-22.7a143,143,0,0,1,14.35-7c2.71-1.1-5,11.83-6.63,14.7C125.95,40.38,118,51.1,110,61.73A8.53,8.53,0,0,1,105,65c-4.06.94-8.09,2-12.13,3a2.3,2.3,0,0,0-1.15.78c-3.14,4-6.42,8-9.3,12.22-1.65,2.43-4,3.19-6.7,4.24,0.61-2.64,1-5,2.79-6.88,8.49-8.8,16.87-17.7,25.36-26.5,3.3-3.42,6.79-6.66,10.12-10.06-10.4,5.7-16.33,9.59-24.29,18"/></svg>