<svg id="art" xmlns="http://www.w3.org/2000/svg" viewBox="0 0 150 150"><defs><style>.cls-1{fill:#f68e1e;}</style></defs><title>careers-disciplines-icon-</title><polyline class="cls-1" points="73.04 106.2 68.8 46.74 75.29 29.67 82.59 46.68 79.18 106.13"/><path class="cls-1" d="M74.52,108h0a5,5,0,0,1,2.8.85A7.5,7.5,0,0,1,80,116.64c-0.59,2.48-3.26,7.75-15.08,11.13a16.06,16.06,0,0,0,.88-7.09,12.81,12.81,0,0,1,3.06-9.8A7.94,7.94,0,0,1,74.52,108m0-3.65c-6.47,0-13.19,7-12.34,16.6s-7.95,12.55-7.95,12.55c35.48-4.32,32.18-23,25.11-27.69a8.63,8.63,0,0,0-4.83-1.46h0Z"/><path class="cls-1" d="M80.91,98S97.06,64.9,97.06,43.93c0,0,30.2-1,44.85-25.62,0,0-3.82,13-16.44,24.87-6.94,6.51-16.74,12.57-21.4,12.62C104.06,55.8,102.59,67.75,80.91,98Z"/><path class="cls-1" d="M99.13,61.09c0.09,0.94,21.56,2.21,36.21-22.4,0,0-4.72,17-17.37,27-8.4,6.64-16.33,9.46-26,9.58"/><path class="cls-1" d="M69.09,98.3S52.94,65.18,52.94,44.21c0,0-30.2-1-44.85-25.62,0,0,3.82,13,16.44,24.87C31.48,50,41.28,56,45.94,56.09,45.94,56.09,47.41,68,69.09,98.3Z"/><path class="cls-1" d="M50.87,61.38c-0.09.94-21.56,2.21-36.21-22.4,0,0,4.72,17,17.37,27,8.4,6.64,16.33,9.46,26,9.58"/></svg>