<svg id="administration" xmlns="http://www.w3.org/2000/svg" viewBox="0 0 150 150"><defs><style>.cls-1{fill:#f68e1e;}.cls-2{fill:none;stroke:#f68e1e;stroke-miterlimit:10;stroke-width:3px;}</style></defs><title>careers-disciplines-icon-</title><polygon class="cls-1" points="86.82 47.51 86.82 54.1 78.64 54.1 78.64 47.51 75.58 47.51 70.98 47.51 67.91 47.51 67.91 54.1 59.73 54.1 59.73 47.51 51.05 47.51 51.05 66.91 70.98 66.91 75.58 66.91 95.5 66.91 95.5 47.51 86.82 47.51"/><polyline class="cls-2" points="73.28 47.51 73.28 18.43 92.69 18.43 92.69 27.95 73.28 27.95"/><path class="cls-1" d="M95.5,106.62L87.33,75.24H59.22L51,106.62l-12.77,4.62v11.63H64.33V101.44a8.94,8.94,0,1,1,17.88,0v21.42h26.06V111.24Z"/></svg>