<svg id="design" xmlns="http://www.w3.org/2000/svg" viewBox="0 0 150 150"><defs><style>.cls-1{fill:#f68e1e;}.cls-2,.cls-3,.cls-4,.cls-5{fill:none;stroke:#f68e1e;stroke-miterlimit:10;}.cls-2{stroke-width:2.13px;}.cls-3{stroke-width:2.62px;}.cls-4{stroke-width:2.36px;}.cls-5{stroke-width:3px;}</style></defs><title>careers-disciplines-icon-</title><polygon class="cls-1" points="51.6 109.48 43.12 97.38 111.64 31.52 120.95 42.53 51.6 109.48"/><polyline class="cls-2" points="43.75 97.62 31.29 118.7 51.37 108.66"/><line class="cls-3" x1="114.25" y1="27.63" x2="124.61" y2="38.85"/><path class="cls-1" d="M38.75,69.08c-1.26-1.26-.63-3.93,1.41-6l21.6-21.6c2-2,4.7-2.67,6-1.41h0c1.26,1.26.62,3.92-1.41,6l-21.6,21.6c-2,2-4.7,2.66-6,1.41h0Z"/><line class="cls-2" x1="40.13" y1="48.5" x2="47.24" y2="41.39"/><line class="cls-2" x1="36.2" y1="45.04" x2="43.32" y2="37.93"/><line class="cls-2" x1="44.05" y1="52.42" x2="51.16" y2="45.31"/><circle class="cls-1" cx="32.1" cy="34.29" r="7.04"/><path class="cls-4" d="M80,88.7L88.8,97s20.66,13.37,31.57,19.72c-6.73-10-20.31-29.08-20.31-29.08L90.71,78.3"/><line class="cls-4" x1="85.57" y1="83.3" x2="116.22" y2="112.53"/><line class="cls-5" x1="51.37" y1="61.01" x2="62.43" y2="72.07"/><line class="cls-5" x1="55.92" y1="55.87" x2="66.99" y2="66.93"/><line class="cls-5" x1="60.31" y1="50.03" x2="72.37" y2="62.09"/></svg>